<?xml version="1.0" encoding="UTF-8" standalone="no"?>
<svg
   width="626.37579"
   height="179.42488"
   version="1.1"
   role="img"
   aria-labelledby="logo-title"
   id="svg14"
   sodipodi:docname="________logo.svg"
   inkscape:version="1.4.2 (f4327f4, 2025-05-13)"
   inkscape:export-filename="________logo.svg"
   inkscape:export-xdpi="96"
   inkscape:export-ydpi="96"
   xmlns:inkscape="http://www.inkscape.org/namespaces/inkscape"
   xmlns:sodipodi="http://sodipodi.sourceforge.net/DTD/sodipodi-0.dtd"
   xmlns:xlink="http://www.w3.org/1999/xlink"
   xmlns="http://www.w3.org/2000/svg"
   xmlns:svg="http://www.w3.org/2000/svg"
   xmlns:rdf="http://www.w3.org/1999/02/22-rdf-syntax-ns#"
   xmlns:cc="http://creativecommons.org/ns#"
   xmlns:dc="http://purl.org/dc/elements/1.1/">
  <sodipodi:namedview
     id="namedview14"
     pagecolor="#ffffff"
     bordercolor="#000000"
     borderopacity="0.25"
     inkscape:showpageshadow="2"
     inkscape:pageopacity="0.0"
     inkscape:pagecheckerboard="0"
     inkscape:deskcolor="#d1d1d1"
     inkscape:zoom="1.2075208"
     inkscape:cx="260.86507"
     inkscape:cy="88.197238"
     inkscape:window-width="1920"
     inkscape:window-height="1009"
     inkscape:window-x="1912"
     inkscape:window-y="-8"
     inkscape:window-maximized="1"
     inkscape:current-layer="svg14">
    <inkscape:page
       x="0"
       y="0"
       width="626.37579"
       height="179.42488"
       id="page2"
       margin="0"
       bleed="0" />
  </sodipodi:namedview>
  <title
     id="logo-title">七彩漸層七瓣花 Logo</title>
  <defs
     id="defs14">
    <!-- 7 種淡色系彩虹漸層 -->
    <linearGradient
       id="grad1"
       x1="0"
       y1="0"
       x2="1"
       y2="1">
      <stop
         offset="0%"
         stop-color="#ffb3ba"
         stop-opacity="0.7"
         id="stop1" />
      <stop
         offset="100%"
         stop-color="#ffdfba"
         stop-opacity="0.9"
         id="stop2" />
    </linearGradient>
    <linearGradient
       id="grad2"
       x1="0"
       y1="0"
       x2="1"
       y2="1">
      <stop
         offset="0%"
         stop-color="#ffdfba"
         stop-opacity="0.7"
         id="stop3" />
      <stop
         offset="100%"
         stop-color="#ffffba"
         stop-opacity="0.9"
         id="stop4" />
    </linearGradient>
    <linearGradient
       id="grad3"
       x1="0"
       y1="0"
       x2="1"
       y2="1">
      <stop
         offset="0%"
         stop-color="#ffffba"
         stop-opacity="0.7"
         id="stop5" />
      <stop
         offset="100%"
         stop-color="#baffc9"
         stop-opacity="0.9"
         id="stop6" />
    </linearGradient>
    <linearGradient
       id="grad4"
       x1="0"
       y1="0"
       x2="1"
       y2="1">
      <stop
         offset="0%"
         stop-color="#baffc9"
         stop-opacity="0.7"
         id="stop7" />
      <stop
         offset="100%"
         stop-color="#bae1ff"
         stop-opacity="0.9"
         id="stop8" />
    </linearGradient>
    <linearGradient
       id="grad5"
       x1="0"
       y1="0"
       x2="1"
       y2="1">
      <stop
         offset="0%"
         stop-color="#bae1ff"
         stop-opacity="0.7"
         id="stop9" />
      <stop
         offset="100%"
         stop-color="#e3baff"
         stop-opacity="0.9"
         id="stop10" />
    </linearGradient>
    <linearGradient
       id="grad6"
       x1="107.63356"
       y1="18.738331"
       x2="160.66656"
       y2="71.771339"
       gradientTransform="scale(0.70710678,1.4142136)"
       gradientUnits="userSpaceOnUse">
      <stop
         offset="0%"
         stop-color="#e3baff"
         stop-opacity="0.7"
         id="stop11" />
      <stop
         offset="100%"
         stop-color="#d6b3ff"
         stop-opacity="0.9"
         id="stop12" />
    </linearGradient>
    <linearGradient
       id="grad7"
       x1="0"
       y1="0"
       x2="1"
       y2="1">
      <stop
         offset="0%"
         stop-color="#d6b3ff"
         stop-opacity="0.7"
         id="stop13" />
      <stop
         offset="100%"
         stop-color="#ffb3ba"
         stop-opacity="0.9"
         id="stop14" />
    </linearGradient>
    <linearGradient
       inkscape:collect="always"
       xlink:href="#grad1"
       id="linearGradient14"
       x1="107.63356"
       y1="18.738331"
       x2="160.66656"
       y2="71.771339"
       gradientTransform="scale(0.70710678,1.4142136)"
       gradientUnits="userSpaceOnUse" />
    <linearGradient
       inkscape:collect="always"
       xlink:href="#grad2"
       id="linearGradient15"
       x1="107.63356"
       y1="18.738331"
       x2="160.66656"
       y2="71.771339"
       gradientTransform="scale(0.70710678,1.4142136)"
       gradientUnits="userSpaceOnUse" />
    <linearGradient
       inkscape:collect="always"
       xlink:href="#grad3"
       id="linearGradient16"
       x1="107.63356"
       y1="18.738331"
       x2="160.66656"
       y2="71.771339"
       gradientTransform="scale(0.70710678,1.4142136)"
       gradientUnits="userSpaceOnUse" />
    <linearGradient
       inkscape:collect="always"
       xlink:href="#grad4"
       id="linearGradient17"
       x1="107.63356"
       y1="18.738331"
       x2="160.66656"
       y2="71.771339"
       gradientTransform="scale(0.70710678,1.4142136)"
       gradientUnits="userSpaceOnUse" />
    <linearGradient
       inkscape:collect="always"
       xlink:href="#grad5"
       id="linearGradient18"
       x1="107.63356"
       y1="18.738331"
       x2="160.66656"
       y2="71.771339"
       gradientTransform="scale(0.70710678,1.4142136)"
       gradientUnits="userSpaceOnUse" />
    <linearGradient
       inkscape:collect="always"
       xlink:href="#grad7"
       id="linearGradient19"
       x1="107.63356"
       y1="18.738331"
       x2="160.66656"
       y2="71.771339"
       gradientTransform="scale(0.70710678,1.4142136)"
       gradientUnits="userSpaceOnUse" />
    <linearGradient
       inkscape:collect="always"
       xlink:href="#grad5"
       id="linearGradient20"
       x1="195.86243"
       y1="54.387493"
       x2="264.41064"
       y2="122.93571"
       gradientTransform="matrix(0.86093674,0,0,1.060932,22.943325,16.148458)"
       gradientUnits="userSpaceOnUse" />
    <linearGradient
       inkscape:collect="always"
       xlink:href="#grad7"
       id="linearGradient21"
       x1="289.20032"
       y1="54.437847"
       x2="354.71799"
       y2="119.9555"
       gradientTransform="matrix(0.84394501,0,0,1.082293,55.437713,16.148458)"
       gradientUnits="userSpaceOnUse" />
    <linearGradient
       inkscape:collect="always"
       xlink:href="#grad1"
       id="linearGradient22"
       x1="319.4024"
       y1="82.993484"
       x2="372.26993"
       y2="135.86099"
       gradientTransform="matrix(0.95486107,0,0,0.95657428,93.666404,16.148458)"
       gradientUnits="userSpaceOnUse" />
  </defs>
  <!-- 7 片均勻分佈的花瓣 -->
  <!-- 中央 G，完美居中 -->
  <g
     id="svg_1"
     transform="matrix(1.2584787,0,0,1.2584787,-27.357767,-33.349686)">
    <g
       id="svg_2">
      <path
         d="m 94.85842,26.5 c 25,20 25,55 0,75 -25,-20 -25,-55 0,-75 z"
         fill="url(#grad1)"
         id="svg_3"
         style="fill:url(#linearGradient14)" />
    </g>
    <g
       id="svg_4"
       transform="rotate(51.4286,94.8584,101.5)">
      <path
         d="m 94.85842,26.5 c 25,20 25,55 0,75 -25,-20 -25,-55 0,-75 z"
         fill="url(#grad2)"
         id="svg_5"
         style="fill:url(#linearGradient15)" />
    </g>
    <g
       id="svg_6"
       transform="rotate(102.857,94.8584,101.5)">
      <path
         d="m 94.85842,26.5 c 25,20 25,55 0,75 -25,-20 -25,-55 0,-75 z"
         fill="url(#grad3)"
         id="svg_7"
         style="fill:url(#linearGradient16)" />
    </g>
    <g
       id="svg_8"
       transform="rotate(154.286,94.8584,101.5)">
      <path
         d="m 94.85842,26.5 c 25,20 25,55 0,75 -25,-20 -25,-55 0,-75 z"
         fill="url(#grad4)"
         id="svg_9"
         style="fill:url(#linearGradient17)" />
    </g>
    <g
       id="svg_10"
       transform="rotate(-154.286,94.8584,101.5)">
      <path
         d="m 94.85842,26.5 c 25,20 25,55 0,75 -25,-20 -25,-55 0,-75 z"
         fill="url(#grad5)"
         id="svg_11"
         style="fill:url(#linearGradient18)" />
    </g>
    <g
       id="svg_12"
       transform="rotate(-102.857,94.8584,101.5)">
      <path
         d="m 94.85842,26.5 c 25,20 25,55 0,75 -25,-20 -25,-55 0,-75 z"
         fill="url(#grad6)"
         id="svg_13"
         style="fill:url(#grad6)" />
    </g>
    <g
       id="svg_14"
       transform="rotate(-51.429,94.8584,101.5)">
      <path
         d="m 94.85842,26.5 c 25,20 25,55 0,75 -25,-20 -25,-55 0,-75 z"
         fill="url(#grad7)"
         id="svg_15"
         style="fill:url(#linearGradient19)" />
    </g>
  </g>
  <path
     d="m 278.27148,88.897399 q 3.08376,0 5.04619,2.102586 2.10255,1.962404 2.10255,5.186414 v 33.501161 q 0,3.36407 -2.24273,5.1863 -14.71809,12.195 -34.34213,12.195 -14.99846,0 -27.47381,-7.4291 -12.33518,-7.42917 -19.48399,-20.32501 -7.14873,-12.89584 -7.14873,-28.454942 0,-15.418927 7.14873,-28.174601 7.14881,-12.895852 19.48399,-20.32497 12.47535,-7.5693 27.47381,-7.5693 10.65305,0 18.36246,2.803448 7.84965,2.803443 15.83949,9.251359 1.68206,1.261554 2.24273,2.663271 0.56067,1.261555 0.56067,3.083789 0,2.803441 -2.10256,4.625681 -1.96242,1.822241 -4.76582,1.822241 -2.52309,0 -4.76588,-1.822241 -5.74705,-4.906021 -11.21372,-7.008603 -5.46675,-2.242761 -14.15737,-2.242761 -10.93348,0 -20.18489,5.747061 -9.11119,5.747067 -14.57791,15.699286 -5.32651,9.812057 -5.32651,21.44634 0,11.774482 5.32651,21.586502 5.46672,9.81208 14.57791,15.55906 9.25141,5.7471 20.18489,5.7471 11.77439,0 22.56769,-7.00855 v -24.95066 h -19.3438 q -3.22389,0 -5.32657,-1.822251 -1.96235,-1.82224 -1.96235,-4.6257 0,-2.80342 1.96235,-4.62567 2.10268,-1.82224 5.32657,-1.82224 z"
     id="svg_27"
     style="font-weight:bold;font-size:146.667px;font-family:Comfortaa;-inkscape-font-specification:'Comfortaa, Bold';fill:url(#linearGradient20);stroke-width:0"
     aria-label="G" />
  <path
     d="m 311.73389,145.97543 q -3.08377,0 -5.18644,-2.10254 -2.10255,-2.10256 -2.10255,-5.18644 V 43.789896 q 0,-3.223959 2.10255,-5.186369 2.10267,-2.10258 5.18644,-2.10258 h 25.3712 q 15.83949,0 28.1746,7.008609 12.33512,7.008607 19.20355,19.48393 6.86845,12.335165 6.86845,28.174615 0,15.839429 -6.86845,28.314799 -6.86843,12.47529 -19.20355,19.48397 -12.33511,7.00856 -28.1746,7.00856 z m 25.3712,-12.89584 q 11.63427,0 20.74544,-5.32656 9.25141,-5.32649 14.29761,-14.85821 5.18637,-9.67189 5.18637,-21.726719 0,-12.054807 -5.18637,-21.586519 -5.0462,-9.531709 -14.29761,-14.858253 -9.11117,-5.326544 -20.74544,-5.326544 h -18.08228 v 83.682805 z"
     id="svg_28"
     style="font-weight:bold;font-size:146.667px;font-family:Comfortaa;-inkscape-font-specification:'Comfortaa, Bold';fill:url(#linearGradient21);stroke-width:0"
     aria-label="D" />
  <path
     d="m 440.49117,68.420831 q 10.79329,0 19.48398,5.186367 8.83086,5.046199 13.87712,14.017223 5.1863,8.830858 5.1863,19.764279 v 31.25843 q 0,3.08382 -2.10254,5.18638 -1.96242,1.96236 -5.04619,1.96236 -3.08383,0 -5.18638,-1.96236 -1.96236,-2.10256 -1.96236,-5.18638 v -5.18644 q -4.90608,6.0274 -11.9147,9.3916 -7.00862,3.36419 -15.13863,3.36419 -10.09239,0 -18.36252,-5.04619 -8.13002,-5.04627 -12.89579,-13.87713 -4.62576,-8.97104 -4.62576,-19.90446 0,-10.933421 5.04624,-19.764279 5.0462,-8.971024 13.877,-14.017223 8.97099,-5.186367 19.76423,-5.186367 z m 0,65.180049 q 7.00868,0 12.6156,-3.36407 5.74704,-3.50432 8.97093,-9.3916 3.22407,-6.0274 3.22407,-13.45651 0,-7.429111 -3.22407,-13.456511 -3.22389,-6.027422 -8.97093,-9.391562 -5.60692,-3.504304 -12.6156,-3.504304 -7.00856,0 -12.7556,3.504304 -5.60686,3.36414 -8.97099,9.391562 -3.22401,6.0274 -3.22401,13.456511 0,7.42911 3.22401,13.45651 3.36413,5.88728 8.97099,9.3916 5.74704,3.36407 12.7556,3.36407 z"
     id="svg_29"
     style="font-weight:bold;font-size:146.667px;font-family:Comfortaa;-inkscape-font-specification:'Comfortaa, Bold';fill:url(#linearGradient22);stroke-width:0"
     aria-label="a" />
  <path
     d="m 498.94877,144.9592 q -3.08371,0 -5.18625,-1.96243 -1.96249,-2.10254 -1.96249,-5.18638 V 75.433783 q 0,-3.223958 1.96249,-5.186373 2.10254,-1.962413 5.18625,-1.962413 3.22401,0 5.18636,1.962413 1.96244,1.962415 1.96244,5.186373 v 62.376607 q 0,3.08384 -1.96244,5.18638 -1.96235,1.96243 -5.18636,1.96243 z m 0,-89.149523 q -3.78461,0 -6.58801,-2.663272 -2.66329,-2.803442 -2.66329,-6.588092 0,-3.78465 2.66329,-6.447922 2.8034,-2.803449 6.58801,-2.803449 3.78467,0 6.44795,2.803449 2.80346,2.663272 2.80346,6.447922 0,3.78465 -2.80346,6.588092 -2.66328,2.663272 -6.44795,2.663272 z"
     id="svg_31"
     style="font-weight:bold;font-size:146.667px;font-family:Comfortaa;-inkscape-font-specification:'Comfortaa, Bold';fill:#ffc5ba;fill-opacity:0.780392;stroke-width:0"
     aria-label="i" />
  <path
     d="m 539.69917,144.982 q -6.0274,0 -10.9334,-3.22388 -4.76584,-3.36419 -7.42905,-9.25148 -2.66341,-6.02734 -2.66341,-13.45644 V 42.516151 q 0,-3.083781 1.9625,-5.046198 1.96243,-1.962404 5.04617,-1.962404 3.08379,0 5.04616,1.962404 1.96248,1.962417 1.96248,5.046198 V 119.0502 q 0,5.18637 1.96236,8.5505 1.96244,3.36412 5.04619,3.36412 h 3.50432 q 2.80346,0 4.48552,1.96237 1.82224,1.96243 1.82224,5.04625 0,3.08377 -2.66327,5.0462 -2.66328,1.96236 -6.86837,1.96236 z"
     id="svg_32"
     style="font-weight:bold;font-size:146.667px;font-family:Comfortaa;-inkscape-font-specification:'Comfortaa, Bold';fill:#e2b3ea;fill-opacity:0.760784;stroke-width:0"
     aria-label="l" />
  <path
     d="m 622.03049,68.738502 q 4.34534,1.682071 4.34534,5.466715 0,1.401724 -0.84109,3.364128 L 582.6421,174.00783 q -1.68206,4.34534 -5.46673,4.34534 -1.40177,0 -3.36413,-0.84102 -4.20517,-1.82225 -4.20517,-5.46674 0,-1.68207 0.8411,-3.36413 l 14.01719,-31.53873 -31.53873,-59.853545 q -0.70088,-1.261542 -0.70088,-2.943618 0,-1.822233 1.12142,-3.364128 1.12134,-1.541895 2.94358,-2.382927 1.26151,-0.560685 2.80346,-0.560685 3.92479,0 5.88716,3.924814 l 25.65156,51.022719 22.56769,-50.882543 q 1.82224,-4.06499 5.4668,-4.06499 1.82213,0 3.36407,0.700855 z"
     id="svg_33"
     style="font-weight:bold;font-size:146.667px;font-family:Comfortaa;-inkscape-font-specification:'Comfortaa, Bold';fill:#e5b3e5;fill-opacity:0.776471;stroke-width:0"
     aria-label="y" />
  <metadata
     id="metadata25">
    <rdf:RDF>
      <cc:Work
         rdf:about="">
        <dc:title>七彩漸層七瓣花 Logo</dc:title>
      </cc:Work>
    </rdf:RDF>
  </metadata>
</svg>
