<?xml version="1.0" encoding="UTF-8" standalone="no"?>
<svg
     width="256"
     height="256"
     viewBox="0 0 256 256"
     version="1.1"
     role="img"
     aria-labelledby="icon-title"
     id="logo-icon"
     xmlns="http://www.w3.org/2000/svg">
    <title id="icon-title">七瓣花 Icon</title>
  

    <!-- 擷取自原檔的花瓣群組（已移除旋轉動畫） -->
    <g id="g1" transform="translate(36, 38)">
        <g id="svg_2" transform="matrix(1.2584787,0,0,1.2584787,-27.357767,-33.349686)" style="fill:#68f0fd;fill-opacity:0.48235294">
            <path d="m 94.85842,26.5 c 25,20 25,55 0,75 -25,-20 -25,-55 0,-75 z" fill="url(#grad1)" id="svg_3" style="fill:#68f0fd;fill-opacity:0.48235294" />
        </g>
        <g id="svg_4" transform="matrix(0.78464814,0.98391866,-0.98391866,0.78464814,117.45679,-78.588834)" style="fill:#68f0fd;fill-opacity:0.48235294">
            <path d="m 94.85842,26.5 c 25,20 25,55 0,75 -25,-20 -25,-55 0,-75 z" fill="url(#grad2)" id="svg_5" style="fill:#68f0fd;fill-opacity:0.48235294" />
        </g>
        <g id="svg_6" transform="matrix(-0.2800348,1.2269267,-1.2269267,-0.2800348,243.11622,6.4251293)" style="fill:#68f0fd;fill-opacity:0.48235294">
            <path d="m 94.85842,26.5 c 25,20 25,55 0,75 -25,-20 -25,-55 0,-75 z" fill="url(#grad3)" id="svg_7" style="fill:#68f0fd;fill-opacity:0.48235294" />
        </g>
        <g id="svg_8" transform="matrix(-1.1338529,0.54602779,-0.54602779,-1.1338529,254.9968,157.67664)" style="fill:#69f0fc;fill-opacity:0.48262548">
            <path d="m 94.85842,26.5 c 25,20 25,55 0,75 -25,-20 -25,-55 0,-75 z" fill="url(#grad4)" id="svg_9" style="fill:#69f0fc;fill-opacity:0.48262548" />
        </g>
        <g id="svg_10" transform="matrix(-1.1338529,-0.54602779,0.54602779,-1.1338529,144.15316,261.26729)" style="fill:#68f0fd;fill-opacity:0.48235294">
            <path d="m 94.85842,26.5 c 25,20 25,55 0,75 -25,-20 -25,-55 0,-75 z" fill="url(#grad5)" id="svg_11" style="fill:#68f0fd;fill-opacity:0.48235294" />
        </g>
        <g id="svg_12" transform="matrix(-0.2800348,-1.2269267,1.2269267,-0.2800348,-5.9498994,239.19374)" style="fill:#68f0fd;fill-opacity:0.48235294">
            <path d="m 94.85842,26.5 c 25,20 25,55 0,75 -25,-20 -25,-55 0,-75 z" fill="url(#grad6)" id="svg_13" style="fill:#68f0fd;fill-opacity:0.48235294" />
        </g>
        <g id="svg_14" transform="matrix(0.78464128,-0.98392414,0.98392414,0.78464128,-82.278607,108.07828)" style="fill:#68f0fd;fill-opacity:0.48235294">
            <path d="m 94.85842,26.5 c 25,20 25,55 0,75 -25,-20 -25,-55 0,-75 z" fill="url(#grad7)" id="svg_15" style="fill:#68f0fd;fill-opacity:0.48235294" />
        </g>
    </g>
</svg>